<?xml version="1.0" standalone="no"?>
<svg xmlns="http://www.w3.org/2000/svg" viewBox="0 0 155.18 33.556" width="155.18" height="33.556"><g fill="#bba364" color="#bba364" transform="translate(0, 0) scale(0.5576924)"><svg width="47.0" height="52.0" x="0.0" y="0.0" viewBox="0 0 47 52"><path fill="currentColor" fill-rule="evenodd" d="M22.404 0L21.29.767 20.6 5.81l-2.234 4.855-2.774 6.42-.865 4.092v.01l.526 4.614.29.893-.031-.028-2.08-2.129-.036-.037-.04-.032-.708-.542-.108-.083-.13-.04-.855-.253-.078-.023-.083-.005-.81-.051-.142-.01-.135.045-.605.2-.169.056-.125.127-.523.534-.068.07-.048.084-.312.553-.311.22-2.012.838-.477.198-.093-.503-.038-2.609 2-.354 1.151-.388 1.096-.82.593-.986-1.077-.099-1.302.107-1.088.47-1.297 1.382.444-2.69.868-.284 1.368-.683 1.035-.957.436-1.283-1.182.055L7.35 17l-1.057.64-.717.966-.345 1.224-.379 1.878-.813-1.378-.949-1.12-1.079-.686-1.015-.34.119.882.723 1.488.923 1.026 1.325.678.714.292-.134 1.116.099 1.688-.862-1.195-.996-.845-1.138-.474-1.03-.192L0 22.6l.606.87.876.897 1 .752 1.168.48 1.174.294.048.708.013.107-1.32.55 1.406.172.208 1.737.469 2.878.906-.758-.685-3.748.458.056 2.468.301.112.06.183.268.345.583.685 1.876.237 1.832.001.009v.008l.329 2.148.006.04.01.037.521 1.972.025.094.049.083 1.384 2.404.051.089.074.072.701.679.053.052.062.038 1.24.795.05.032.057.024 1.448.62.055.023.06.014 2.303.565.05.012.05.005 3.13.32 2.068.586.955.988 1.45 2.688.009.013.007.014 1.784 3.003.028.048.034.04 1.193 1.462.285.35.44-.096 3.104-.678.078-.017.071-.033 3.739-1.712.074-.035.066-.05 2.986-2.289.113-.086.073-.124 1.957-3.34.068-.119.023-.135.085-.525.584-3.628.208-1.287-1.209.49-3.554 1.443-3.363.373-3.206-.338-1.723-.686-1.255-1.028.02-.132 2.323-1.699.038-.028.034-.032 3.12-2.959 1.536-1.376.04-.036.035-.042 2.854-3.441.022-.026.019-.028 2.893-4.225.014-.022.014-.023 3.073-5.27.057-.096.024-.107.83-3.535.094-.396-.286-.29-1.511-1.528-.335-.338-.445.167-2.995 1.123-3.612 1.391-3.144 1.007-3.329.511-.17-1.258-1.814 1.985-3.474 2.622-.078-.093 3.327-3.087 1.917-2.325-.338-2.493-1.03-3.536-.82 1.75-1.78 2.763-2.747 2.735-.091-.082 2.373-3.056 1.683-2.795 1.053-2.352-2.334-4.378-.62 2.1-1.556 3.498-1.957 2.9-.106-.06 1.539-3.142 1.537-3.729.47-2.24L24.109.825 22.404 0zm3.174 23.824l1.715-1.228 1.798-1.553 1.87-2.031-.241-1.772 3.398-.523 3.22-1.03 3.632-1.4 2.988-1.12 1.512 1.529-.65 2.764-3.917 1.618-3.789.981-4.16.516 4.186.15 3.923-.838 3.223-1.048-2.384 4.088-3.26.506-3.24.093-2.628-.097 2.65.559 3.135.087 2.726-.162-2.234 3.261-2.568.008-2.237-.301-2.263-.427 2.033.865 2.468.507 2.041.079-2.45 2.956-1.243-.262-1.983-.51-1.504-.459 1.384.787 1.965.716.943.2-1.362 1.22-3.128 2.965-2.564 1.877-.137.846 1.67 1.37 1.923.766 3.386.354 3.543-.391 3.648-1.481-.575 3.564-1.969.33-2.718.033-2.447-.05-1.48-.154 1.44.498h.007l2.425.262 2.902.075 1.594-.145-1.405 2.4-1.8-.061-2.132-.183-2.162-.458-1.76-.577 1.62.937 2.195.715h.006l2.16.284 1.4.08-2.497 1.914-2.618-.821-1.995-.766-1.914-.877 1.701 1.276 1.864.852 2.088.864-2.884 1.32-2.864-1.749-1.8-1.294 1.41 1.57 2.262 1.785-2.506.547-1.192-1.461-1.784-3.003-1.496-2.776-1.163-1.205-2.321-.657-3.194-.326-2.304-.565-1.45-.619-1.239-.793-.7-.68-1.384-2.403-.522-1.97-.328-2.15-.247-1.912-.737-2.017-.391-.66-.3-.44-.393-.207-3.05-.278 2.535-.91.513-.362.391-.698.525-.534.605-.2.81.052.854.253.706.542 2.095 2.145.993.899.422 1.3L19.54 34.5l3.496 2.26 3.288-.11 1.955-2.856 1.22-3.563-1.327.37-2.121.273-.027-.12L28 30.139l1.732-.58.726-2.12v-.01l.128-2.061-1.157.694-3.17 1.311-.053-.11 3.056-1.69 1.375-1.039.275-4.49-1.39 1.35-1.87 1.46-2.008 1.074-.065-.104zm-14.874 1.412l-.383.249-.095.447.25.381.446.096.382-.25.094-.446-.248-.382-.446-.095z"></path></svg></g><line x1="38.212" y1="1" x2="38.212" y2="28" stroke="#0f1c93" stroke-linecap="round"></line><path fill="#0f1c93" fill-rule="nonzero" d="M6.86 0.34L6.86 1.97L7.58 1.94Q11.16 1.94 13.34 3.17Q15.53 4.39 15.53 6.65L15.53 6.65Q15.53 8.33 14.69 9.34L14.69 9.34Q13.97 10.22 13.39 10.51L13.39 10.51L13.15 10.66Q13.56 10.73 14.27 11.12Q14.98 11.52 15.43 11.99Q15.89 12.46 16.27 13.34Q16.66 14.23 16.66 15.31L16.66 15.31Q16.66 18.17 14.26 19.66Q11.86 21.14 7.32 21.14L7.32 21.14Q4.06 21.14 2.03 19.56Q0 17.98 0 15.96L0 15.96Q0 15.62 0.20 15.41Q0.41 15.19 0.68 15.19Q0.96 15.19 1.10 15.34L1.10 15.34Q1.10 16.82 2.09 17.93Q3.07 19.03 4.70 19.56L4.70 19.56L4.70 3.86Q3.65 4.34 3 5.00Q2.35 5.66 2.35 6.26Q2.35 6.86 2.50 7.30L2.50 7.30Q2.35 7.58 1.85 7.58Q1.34 7.58 0.98 7.22Q0.62 6.86 0.62 6.26L0.62 6.26Q0.62 5.14 1.75 4.03Q2.88 2.93 4.70 2.38L4.70 2.38L4.70 1.46Q4.70 0.74 5.06 0.37Q5.42 0 5.95 0Q6.48 0 6.86 0.34L6.86 0.34ZM6.96 19.94L7.32 19.94Q10.90 19.94 12.67 18.82Q14.45 17.69 14.45 15.31L14.45 15.31Q14.45 11.23 8.98 11.23L8.98 11.23Q8.74 11.23 8.57 11.02Q8.40 10.80 8.40 10.44L8.40 10.44Q8.40 9.98 8.98 9.98L8.98 9.98Q11.66 9.98 12.58 8.88L12.58 8.88Q13.32 7.99 13.32 6.65L13.32 6.65Q13.32 4.94 11.75 4.04Q10.18 3.14 7.70 3.12L7.70 3.12Q7.25 3.12 6.96 3.19L6.96 3.19L6.96 19.94ZM26.69 14.18L26.69 14.18Q27.12 14.18 27.12 15.46L27.12 15.46Q27.12 17.30 26.11 18.62Q25.10 19.94 23.54 19.94L23.54 19.94Q21.60 19.94 20.64 18.79Q19.68 17.64 19.68 15.53L19.68 15.53L19.68 6.50Q19.68 3.41 20.33 1.97Q20.98 0.53 22.61 0.53L22.61 0.53Q24.98 0.53 24.98 3.74L24.98 3.74Q24.98 6.17 24.04 7.63Q23.09 9.10 21.86 9.82L21.86 9.82L21.86 16.25Q21.86 17.62 22.39 18.31Q22.92 19.01 23.83 19.01Q24.74 19.01 25.54 17.90Q26.33 16.80 26.33 14.33L26.33 14.33Q26.38 14.18 26.69 14.18ZM23.95 3.77L23.95 3.77Q23.95 1.46 22.80 1.46L22.80 1.46Q22.51 1.46 22.36 1.66Q22.20 1.85 22.08 2.62L22.08 2.62Q21.86 3.79 21.86 8.81L21.86 8.81Q23.95 7.30 23.95 3.77ZM32.78 10.49Q32.78 9.77 33.19 9.40Q33.60 9.02 34.18 9.02Q34.75 9.02 35.09 9.36L35.09 9.36L35.09 16.25Q35.09 17.62 35.52 18.31Q35.95 19.01 36.70 19.01L36.70 19.01Q37.44 19.01 38.14 18.14L38.14 18.14Q38.95 17.11 38.95 14.33L38.95 14.33Q38.98 14.18 39.31 14.18L39.31 14.18Q39.74 14.18 39.74 15.46L39.74 15.46Q39.74 17.50 38.87 18.72Q37.99 19.94 36.41 19.94L36.41 19.94Q33.89 19.94 33.10 17.66L33.10 17.66Q32.16 19.94 29.66 19.94L29.66 19.94Q28.18 19.94 27.26 19.04Q26.35 18.14 26.35 16.46L26.35 16.46L26.35 10.49Q26.35 9.77 26.71 9.40Q27.07 9.02 27.62 9.02Q28.18 9.02 28.51 9.36L28.51 9.36L28.51 16.25Q28.51 19.10 29.95 19.10L29.95 19.10Q31.03 19.10 31.91 17.81Q32.78 16.51 32.78 14.16L32.78 14.16L32.78 10.49ZM43.42 15.05Q42.46 14.71 41.51 14.34Q40.56 13.97 39.91 13.27Q39.26 12.58 39.26 11.48Q39.26 10.39 40.27 9.71Q41.28 9.02 43.21 9.02Q45.14 9.02 46.24 9.70Q47.33 10.37 47.33 11.26L47.33 11.26Q47.33 11.69 47.00 11.95Q46.68 12.22 46.37 12.22L46.37 12.22Q45.77 12.22 45.58 11.93L45.58 11.93Q45.72 11.76 45.72 11.27Q45.72 10.78 44.98 10.37Q44.23 9.96 43.32 9.96Q42.41 9.96 41.81 10.30Q41.21 10.63 41.21 11.32Q41.21 12 41.89 12.50Q42.58 13.01 43.55 13.34Q44.52 13.68 45.49 14.06Q46.46 14.45 47.15 15.16Q47.83 15.86 47.83 16.90L47.83 16.90Q47.83 18.43 46.50 19.19Q45.17 19.94 43.00 19.94Q40.82 19.94 39.47 18.68Q38.11 17.42 38.11 15.55L38.11 15.55Q38.11 14.88 38.38 14.50Q38.64 14.11 38.98 14.11L38.98 14.11Q39.60 14.11 39.70 14.33L39.70 14.33L39.74 14.40Q39.60 14.76 39.60 15.29L39.60 15.29Q39.60 16.90 40.54 17.95Q41.47 19.01 43.13 19.01L43.13 19.01Q45.67 19.01 45.70 17.21L45.70 17.21Q45.70 15.84 43.42 15.05L43.42 15.05ZM62.18 15.05Q61.22 14.71 60.28 14.34Q59.33 13.97 58.68 13.27Q58.03 12.58 58.03 11.48Q58.03 10.39 59.04 9.71Q60.05 9.02 61.98 9.02Q63.91 9.02 65.00 9.70Q66.10 10.37 66.10 11.26L66.10 11.26Q66.10 11.69 65.77 11.95Q65.45 12.22 65.14 12.22L65.14 12.22Q64.54 12.22 64.34 11.93L64.34 11.93Q64.49 11.76 64.49 11.27Q64.49 10.78 63.74 10.37Q63 9.96 62.09 9.96Q61.18 9.96 60.58 10.30Q59.98 10.63 59.98 11.32Q59.98 12 60.66 12.50Q61.34 13.01 62.32 13.34Q63.29 13.68 64.26 14.06Q65.23 14.45 65.92 15.16Q66.60 15.86 66.60 16.90L66.60 16.90Q66.60 18.43 65.27 19.19Q63.94 19.94 61.76 19.94Q59.59 19.94 58.24 18.68Q56.88 17.42 56.88 15.55L56.88 15.55Q56.88 14.88 57.14 14.50Q57.41 14.11 57.74 14.11L57.74 14.11Q58.37 14.11 58.46 14.33L58.46 14.33L58.51 14.40Q58.37 14.76 58.37 15.29L58.37 15.29Q58.37 16.90 59.30 17.95Q60.24 19.01 61.90 19.01L61.90 19.01Q64.44 19.01 64.46 17.21L64.46 17.21Q64.46 15.84 62.18 15.05L62.18 15.05ZM81.02 14.18L81.02 14.18Q81.46 14.18 81.46 15.46L81.46 15.46Q81.46 17.30 80.51 18.62Q79.56 19.94 78.05 19.94Q76.54 19.94 75.54 18.88Q74.54 17.81 74.54 16.13L74.54 16.13L74.54 12.72Q74.54 9.86 73.10 9.86L73.10 9.86Q71.83 9.86 71.02 11.16Q70.20 12.46 70.20 15.50L70.20 15.50L70.20 19.61Q69.96 19.94 69.36 19.94Q68.76 19.94 68.40 19.57Q68.04 19.20 68.04 18.48L68.04 18.48L68.04 6.46Q68.04 3.34 68.64 1.93Q69.24 0.53 70.94 0.53L70.94 0.53Q71.86 0.53 72.36 1.30Q72.86 2.06 72.86 3.48L72.86 3.48Q72.86 6.05 70.20 8.71L70.20 8.71L70.20 10.82Q71.21 9.02 73.39 9.02L73.39 9.02Q74.95 9.02 75.88 10.01Q76.80 10.99 76.80 12.84L76.80 12.84L76.80 16.25Q76.80 17.62 77.23 18.31Q77.66 19.01 78.50 19.01Q79.34 19.01 80.00 17.87Q80.66 16.73 80.66 14.33L80.66 14.33Q80.69 14.18 81.02 14.18ZM70.20 7.56L70.20 7.56Q71.83 5.45 71.83 3.46Q71.83 1.46 70.97 1.46L70.97 1.46Q70.49 1.46 70.34 2.57Q70.20 3.67 70.20 7.56ZM85.55 9.02Q87.67 9.02 89.02 10.44Q90.36 11.86 90.36 14.29Q90.36 16.73 89.10 18.34Q87.84 19.94 85.73 19.94Q83.62 19.94 82.21 18.49Q80.81 17.04 80.81 14.46Q80.81 11.88 82.12 10.45Q83.42 9.02 85.55 9.02ZM85.56 9.96L85.56 9.96Q84.91 9.96 84.44 10.28Q83.98 10.61 83.98 11.21L83.98 11.21Q83.98 12.74 85.18 14.15Q86.38 15.55 88.03 16.01L88.03 16.01Q88.08 15.10 88.08 14.45L88.08 14.45Q88.08 11.95 87.55 10.96Q87.02 9.96 85.56 9.96ZM83.09 14.45L83.09 14.45Q83.09 16.90 83.70 17.95Q84.31 19.01 85.70 19.01L85.70 19.01Q86.66 19.01 87.18 18.52Q87.70 18.02 87.89 16.92L87.89 16.92Q86.33 16.58 85.02 15.50Q83.71 14.42 83.11 13.10L83.11 13.10Q83.09 13.51 83.09 14.45ZM101.35 11.06L101.35 11.06Q102.14 12.43 102.14 14.75Q102.14 17.06 100.98 18.49Q99.82 19.92 97.94 19.92L97.94 19.92Q96.84 19.92 95.99 19.15Q95.14 18.38 95.14 16.70L95.14 16.70Q95.14 12.77 99.05 10.82L99.05 10.82Q98.42 9.96 97.31 9.96Q96.19 9.96 95.18 11.06Q94.18 12.17 94.18 14.38L94.18 14.38L94.18 28.66Q93.94 28.99 93.34 28.99Q92.74 28.99 92.38 28.62Q92.02 28.25 92.02 27.53L92.02 27.53L92.02 9.36Q92.26 9.02 92.86 9.02Q93.46 9.02 93.82 9.40Q94.18 9.77 94.18 10.49L94.18 10.49L94.18 11.02Q95.42 9.02 97.48 9.02Q99.53 9.02 100.68 10.18L100.68 10.18Q103.20 9.36 106.32 9.36L106.32 9.36Q106.97 9.36 106.97 9.89L106.97 9.89L106.82 10.25Q103.92 10.25 101.35 11.06ZM97.90 18.98L97.90 18.98Q99.86 18.98 99.86 15.07L99.86 15.07Q99.86 13.01 99.53 11.83L99.53 11.83Q96.36 13.56 96.36 16.78L96.36 16.78Q96.36 17.83 96.82 18.41Q97.27 18.98 97.90 18.98Z" transform="translate(48.212, 4.564)"></path></svg>